<?xml version="1.0" encoding="utf-8"?>
<!-- Svg Vector Icons : http://www.onlinewebfonts.com/icon -->
<!DOCTYPE svg PUBLIC "-//W3C//DTD SVG 1.1//EN" "http://www.w3.org/Graphics/SVG/1.1/DTD/svg11.dtd">
<svg version="1.1" xmlns="http://www.w3.org/2000/svg" xmlns:xlink="http://www.w3.org/1999/xlink" x="0px" y="0px" viewBox="0 0 1000 1000" enable-background="new 0 0 1000 1000" xml:space="preserve">
<metadata> Svg Vector Icons : http://www.onlinewebfonts.com/icon </metadata>
<g><g><g><polygon points="810.9,554.1 795.3,554.5 794.6,546.1 797.2,547.1 803.3,546.5 802.7,538.7 785.8,538.9 781.1,532.8 781.4,529.6 759.7,510 754.4,514.2 785.4,552.2 789.8,553.7 789.8,555.7 783.9,555.7 785.4,560.4 823.5,562.1 "/><polygon points="835.3,534.2 837.9,532.5 837.9,511.7 835.3,510.6 834.1,504.1 830.3,504.1 827.8,510.7 824.9,513.3 802.8,525.3 802.8,537.1 810.2,546.8 828.8,546.8 831.2,540.8 835.3,537 "/><polygon points="851.7,532.5 840.5,536.8 840.7,539.4 837.9,539.4 837.9,554.7 843.6,554.7 842.8,544.9 847.2,546.5 847.2,553.5 851.9,553.1 "/><polygon points="942.5,613.4 931.2,603.7 930.3,585.2 922.8,572.3 916.1,572 913.3,595.3 900.4,594.3 896.9,592.2 896.4,582.9 903.2,584.3 909,578.7 896.7,571.4 882.3,571.4 872,586 867.8,586 867.8,581.4 855.4,582.3 835.8,604.7 825.4,604.8 813.8,612.8 813,647.4 806,654.1 806,660.2 839.8,648.6 867.1,647.5 877.2,669.8 908.3,670.9 938.2,642.7 945.6,625.9 "/><polygon points="881.3,686.9 892.3,688.1 901.1,683.2 901.3,676.5 891.6,675.5 "/><polygon points="986.9,656.6 982.3,657.5 982.2,647.1 973.8,647.7 972.7,663.8 965.3,668.8 951.6,670.7 929.7,686.4 926,689.4 926,694.6 937.5,692.8 965.3,675.8 973.1,670.6 981.6,666.9 990,662.1 "/><polygon points="900.7,541.4 893.6,541.6 894.2,534.3 887.4,530.3 877.8,539.9 884.3,547.8 898.1,549.8 906,553.9 906.2,557.7 901.1,557.7 901.3,565.5 918.2,564.4 924.3,557.9 930.8,557.2 930.8,569.3 942.2,569.3 942.2,564.4 936.5,564.4 935.5,549.8 908.3,537.4 "/><polygon points="698.3,506.4 700.9,513.6 710.6,510 711.6,500.1 703.9,498.6 "/><polygon points="585.7,589.9 572.7,588.2 572.7,598.3 577.3,603.8 573.7,609.3 568.4,615.4 568.4,626.6 575.6,633.6 582.2,623 595,604.2 601.1,574.7 593.3,574.7 "/><polygon points="854.5,558.8 850.2,558.8 850.2,561 853.5,562.1 "/><rect x="830.3" y="562.1" width="5.1" height="2.8"/><polygon points="842.6,564.9 845.8,564.9 845.8,562.4 848.1,562.1 848.1,559.7 843,559.7 840.9,562.1 837.9,564.9 837.9,567.3 842.6,566.9 "/><polygon points="855.6,567.1 860.6,567.1 860.6,564.5 864.2,564.9 863.7,560.4 857.9,561.3 857.4,564.2 851,564.9 850.7,564.9 850.7,569.3 855.6,569.3 "/><path d="M76.4,347.2l1.1-6.6l-6.8-1c0,0.4,0.5,7.7,1,7.7C72.2,347.2,76.4,347.2,76.4,347.2z"/><polygon points="420.7,340.8 421.2,344.9 415.1,346.2 414.2,355 421.6,355 431.4,354 436.5,348 431.1,345.9 428.2,342.5 423.7,335.4 421.6,325.2 413.3,326.9 411,330.5 411,334.5 415,337.3 "/><polygon points="413.6,344.2 414,338.7 409.2,336.6 402.3,338.2 397.3,346.3 397.3,351.6 403.2,351.6 "/><path d="M763.6,504.4l30,28.8l1.6-5.1l-24.4-34.8l2.5-10.1l12.8,14.6l7.2,0.8l9.4-6.3l-1.6-9.5l-15.6-12.5l-0.6-11.4l4.5-6l7.9,2.5l-0.6,5.4l4.5,6.9l4-2.8l-2.2-8.2l22.1-7.9l9.7-8.1l-1.5-14.6l-19.3-20.2l-0.3-16.4h8.5l26.5,20.2l7.5-2l-5-6.5l-14.2-8.6l0.8-12.8l16.9,0l1.4-15.9l-6.5-8.4l3.8-4.1l8.2,8.2l2.6-3.5l-10.5-12l-26.2-3.2l-3.5-6.9l7.6-10.7l6,4.4l18,1.6l22.8-15.2l3.8,4.7l-5.1,7.9v7.9l20.9,17.1l6.7-3.5l-2.5-11.4l-14.9-13.9l19.6-1.3v-5.7l9.5-1.9l-7.3-5l0.3-3.9l19.9,3.2l3.8-3.2l-26.9-11.4l-98-5.1l-9.2-4.6l-14.5-2.2l-11-0.4l-9.9,10l-4.2-0.3l-13.2-9.8h-38.9l-18-10.8l-36.1,2.3L626,285l0.2,14.2l-8.5,2.5l-1.9-14.2l-3.2-4.9l-9.5-2.3l-2.2,8.5l2.8,7l-33.8-2.2L554,301l-2.4-7.1l-4,1.1l-3,7.8l-8.4,6.6l-20.6-0.6l-0.9-4.5l21.5-1l4.4-3.8l-26-12l-31.6,0.9l-17.7,9.1l-6.6,11.8L447,314l-4.9,5.4l1.1,6.2l6,0.8l3.7,9.1l10.4-4.2l1.7,12.2h-3.1l-8.6-1.3l-9.5,1.6l-9.2,13l-13.1,2.1l-1.9,11.2l5.5,1.3l-1.6,7.2l-13-2.6l-12,2.6l-2.5,6.7l2.1,14l7,3.3l11.8-0.1l7.9-0.7l2.4-6.3l12.4-16.2l8.2,1.7l8.1-7.3l1.5,5.7l19.8,13.4l-2.4,3.3l-8.9-0.5l3.4,4.9l5.5,1.2l6.4-2.7l-0.1-7.7l2.8-1.4l-2.3-2.4l-13.2-7.4L465,370h11l3.5,3.5l9.5,8.1l0.4,9.8l9.8,10.4l3.6-14.3l6.8-3.7l1.3,11.7l6.6,7.3l20-0.3l5.9,4.4v10.4l-7.3,6.6h-20.2l-12.4-9.2l-12.9,1.3v7.9h-4.1l-4.4-3.2l-22.5-5.7v-14.5l-28.5,2.2l-8.8,4.7H411l-5.5-0.6l-13.7,7.6V429l-28.1,20.2l2.3,8.6h5.7l-1.5,8.2l-4,1.5l-0.2,21.5l24.2,27.6h10.6l0.6-1.7h19l5.5-5.1h10.8l5.9,5.9l16,1.7l-2.1,21.3l17.8,31.4l-9.4,17.9l0.6,8.4l7.4,7.4v20.3l9.7,13v16.9h28.7l21.5-22.2l6.7-12l8.6-1.9V608l5.7-6.7l12-16.5l-2.5-25.1l-5.3-9.3l23.7-22.6l26.1-37.3l-5.1-2.3l-27,5.7l-7-3.5l-28.5-53.6l2-2.3l28.2,34.3l0.7,10.6l6.5,6.5l13.3-0.9l27.7-20.1l8.7-5.7l-0.2-7l-9.3-1.2c0,0-32.5-15.3-32.5-16c0-0.7,0.2-13.1,0.2-13.1h7.2l1.1,9.1l15,8.6l17.2,0.8l37.3,6.1l8.7,5.5v8.5l-1.1,11.6l19.1,31.4l6.2,1.4l6.2-8.9l3.4-25.5l6.4-13.7l10.3-3.8l18.1,1.7l22.7,20.2L763.6,504.4L763.6,504.4z M501.2,304.3l-12.6,7.7v5.1l7.1,3.3l0.5,6.8l-10,14.9l-17.4-0.2l-1.1-3.6l10.9-5.5l0.1-20.6l18.5-12.9h4V304.3z M539.9,392.2l-16.4-0.7l-4.9,0.7V381l3.7-4.1l3.9-1.2l8.7-1l1.9-3l3.6,1.8l0.5,10.2l9.6,3.9l0.8,4.7H539.9z M602.9,400.2l-2.9,2.7l-6.6-0.5l-1.3-2l-10.4-0.7l0.7-3.4l5.5-4.7v-4l-10.6-7.7L577,370l2.1-4.8l8.5-0.7l7.3,3l0.3,5.1l-10.3-0.6l-0.5,4.7l13,8.6v6.3l5.6,4.1L602.9,400.2L602.9,400.2z"/><path d="M271.7,371.4h-7.3v3.7h1.7c0,0,0.1,0.8,0.3,1.8l4.5-0.4l2.8-1.7l0.7-3.5l3.6-0.3l1.4-2.9l-3.3-0.7l-2.9,0.1L271.7,371.4z"/><polygon points="254.1,378 259.4,377.5 260,373.8 256.8,371.4 254.4,374.3 "/><path d="M323.5,540.6l-22.3-0.2l-17.7-6.7l-0.8-12.6l-5.9-10.4l-16-0.2l-9.3-14.5l-8.2-4l-0.4,4.4l-15,0.9l-5.5-7.6l-15.6-3.2l-12.8,14.9l-20.2-3.4l-1.5-22.8l-14.8-2.5l5.9-11.2l-1.7-6.4l-19.4,13l-12.2-1.5l-4.4-9.5l2.7-9.8l6.7-12.4l15.5-7.8h29.9l-0.1,9.1l10.7,5l-0.9-15.6l7.7-7.8l15.7-10.3l1.1-7.2l15.6-16.2l16.6-9.2l-1.5-1.2l11.2-10.6l4.1,1.1l1.9,2.4l4.3-4.7l1.1-0.5l-4.7-0.7l-4.7-1.6v-4.6l2.5-2.1h5.5l2.5,1.1l2.2,4.4l2.7-0.4v-0.4l0.8,0.3l7.8-1.2l1.1-3.8l4.4,1.1v4.1l-4.1,2.8l0,0l0.6,4.5l14.1,4.3c0,0,0,0.1,0,0.2l3.2-0.3l0.2-6.1l-11.2-5l-0.6-2.9l9.3-3.2l0.4-8.8l-9.7-5.9l-0.6-15l-13.3,6.5h-4.9l1.3-11.4l-18.1-4.3l-7.5,5.7v17.2l-13.4,4.3l-5.4,11.2l-5.8,1v-14.4l-12.6-1.7l-6.3-4.1l-2.5-9.3l22.6-13.2l11.1-3.4l1.1,7.4l6.2-0.3l0.5-3.7l6.5-0.9l0.1-1.3l-2.8-1.1l-0.6-4l7.9-0.7l4.8-5l0.3-0.4l0.1,0l1.5-1.5l16.7-2.1l7.4,6.3L265,309l24.6,5.8l3.2-8.2h10.8l3.8-7.2l-7.6-1.9v-9.1l-23.8-10.5l-16.4,1.9l-9.3,4.9l0.6,11.8l-9.7-1.5l-1.5-6.5l9.3-8.4l-16.9-0.9l-4.9,1.5l-2.1,5.7l6.3,1.1l-1.3,6.3l-10.7,0.6l-1.7,4.2l-15.6,0.4c0,0-0.4-8.9-1.1-8.9c-0.6,0,12.2-0.2,12.2-0.2l9.3-9.1l-5.1-2.5l-6.7,6.5l-11.2-0.6l-6.7-9.3h-14.3l-15,11.2h13.7l1.3,4l-3.6,3.4l15.2,0.4l2.3,5.5l-17.1-0.6l-0.8-4.2l-10.7-2.3l-5.7-3.2l-25.3,0.2l-7.8,7.6l-5.3-0.4l-5.9-3.4l-17.5-5.3H64.1l-18.5,12.7l-12.4,1.9l-5.7,4.4l8.9,1.3v3.5h-19l-7.4,5.3l9.5,8l25.9,0.2l3.6-3.8h21.7l7.8,7L78.1,339l6.5,6.1l-5.5,3.9l1.3,14.2l-19.6,23.8v22.3l10.5,5.1v20.1l10.1,17.2l8.2,1.3l1.1-5.9l-9.7-15l-1.9-14.5h5.7l2.4,15l14,20.4l-3.6,6.6l8.9,13.6l22.1,5.5v-3.6l8.9,1.3l-0.8,6.3l6.9,1.3l10.7,2.9l15.2,17.3l19.4,1.5l1.9,15.8l-13.3,9.3l-0.6,14.1l-1.9,8.6l19.2,24l1.5,8.2c0,0,7,1.9,7.8,1.9c0.8,0,15.6,11.2,15.6,11.2v43.4l5.3,1.5l-3.6,20l8.9,11.8l-1.6,19.9l11.7,20.5l15,13.1l15.1,0.3l1.5-4.9l-11.1-9.4l0.6-4.7l2-5.7l0.4-5.8l-7.5-0.2l-3.8-4.7l6.2-6l0.8-4.6l-6.9-2l0.4-4.2l9.9-1.5l15.1-7.3l5.1-9.3l15.8-20.2l-3.6-15.9l4.8-8.4l14.5,0.4l9.8-7.7l3.2-30.5l10.8-13.8l1.9-8.9l-9.9-3.1L323.5,540.6z M208.9,384.8l-3.6,3.6h-8.1l1.3-5.5l3.8-0.3l0.8-1.9l5.8-0.8V384.8z M210.8,374.8l-3.8,2.4l-4.7,0.9c0,0,0-7.6,0-8.4h8.5L210.8,374.8L210.8,374.8z M218,368.9l3.9,2.4l-3.1,2.6l-3.1-2.6L218,368.9z M212.9,375.3h0.6l9.6,2.9v4.9h-8.1l-2.2-3.2V375.3z M206.5,361.7l5.2,4.7l-5.2,1.3V361.7z M184.4,362.5l7.3-3h10v3h2.2v5.2h-15.2l-5.7-1.6L184.4,362.5z M183,376l5.9-6.3h8.4l-10.7,15l-4.4-2.4L183,376z M175.2,340.3l6,1.4l-2.1,8.1l-6.5,2.1l-4.1-8.4L175.2,340.3z M145.2,302v-0.5h5.5l0.5-1.9h9.1v3.9l-2.6,3.5h-12.5V302z M154,314.4c0,0,5.5-0.9,6-0.9c0.5,0,0,5.5,0,5.5l-12.5,0.8l-2.4-2.9L154,314.4z"/></g></g><g></g><g></g><g></g><g></g><g></g><g></g><g></g><g></g><g></g><g></g><g></g><g></g><g></g><g></g><g></g></g>
</svg>