<?xml version="1.0" encoding="utf-8"?>
<!-- Svg Vector Icons : http://www.onlinewebfonts.com/icon -->
<!DOCTYPE svg PUBLIC "-//W3C//DTD SVG 1.1//EN" "http://www.w3.org/Graphics/SVG/1.1/DTD/svg11.dtd">
<svg version="1.1" xmlns="http://www.w3.org/2000/svg" xmlns:xlink="http://www.w3.org/1999/xlink" x="0px" y="0px" viewBox="0 0 1000 1000" enable-background="new 0 0 1000 1000" xml:space="preserve">
<metadata> Svg Vector Icons : http://www.onlinewebfonts.com/icon </metadata>
<g><path d="M886.7,675.6l-1.4-2.1l-1.9,1.6c-1.7,1.4-3,3.9-4.3,8.1l-2.4,8.4c-3.2-1.5-6.3-1.4-9.1,1c-1.4,1.5-2,3-2,4.6c0.1,1.9,1.2,3.9,3.4,5.9c0,0.2-0.1,1.7-3.8,5.6l-7,8.4c-1.9,2-4.7,3.1-8.6,3.1l-9.8,1l-13.2,11.5c-3.8,4.6-5.5,10.3-5,16.7l4.7,22.9c0.9,7.5-2,14.4-8.5,20.7c-3.9,3.1-5.2,9.2-4.8,20.9l0.1,0.6l2.5,4.2l2.6,5.5l-1.4,8.4l0.1,0.5c3.9,14.2,9.8,20.5,17.2,19.1l0.3,1.6l3.4,3c0.6,0.4,1.4,0.6,2,0.6c2.3,0,3.5-1.9,3.8-2.4l2-2.5c9.9-0.2,14.4-4.5,16.5-8.2c2.8-5.4,5.7-14.4,9.1-28.4l5.6-29.4l16.6-57.5l-2.2-4.7c-1.3-1.8-1.9-2.8-1.6-4.6c0.3,0.3,0.6,0.7,1,1.2c2,2.7,3.6,4.4,5.5,4.6l1.2,0.1l0.7-1c3.1-3.9,2.6-12.2-1.5-24.6C893.5,690.5,890.8,682.2,886.7,675.6z M907.2,369.6l-6.5,0.6l-1,0.3c-1.9,1-3.9,2.1-4.5,2.1l-5.5,1.7l-4.9,2.4l-9.2-0.5h-8.7l-6.9,3.7l-5.8,2.9l-8.8-0.1l-9.9,3.7c-7.5,3.5-14.5-0.2-19.8-9.7l0.3-0.3l-3.6-8h0.1c1.5,0,3-0.2,4.1-1.6l0.6-0.9l-0.2-1.1c-0.3-1.5-1.5-3.9-5.3-6.8l-2-1.5v0l-2.5-2l-16.4-17l-14.3-16.2l-1.3,0.4c-0.8,0.3-1.5,1-2,2.4l-1.2,1l-3.5-9.2l-4.2-14.1l-3.9-10.8l-1.4-2.2l0.2-0.3l-0.8-0.6l-0.9-1.4l-0.3,0.5L752,283c-2.8-2.3-5.2-5.1-7-8.4c-0.8-2-1.4-5-2.1-8.9c-0.7-3.2-1.5-7.1-2.5-11.3l-2.6-15.9h0.3l-0.6-1.9l-0.2-0.9h-0.1l-1.1-3.4c-0.5-3.1-2.4-5.6-5.4-7l-5.8-4.8c-0.5-1-0.5-2.5-0.1-4.3l0.1-0.4l-1-8.8l-0.4-0.5c-3.3-4.4-8.2-12.1-13.4-23.5l-12.8-28.2l-9.4-15.9c-2.2-4.7-2.5-8.6-0.5-11.3c0-0.1,0.1-0.2,0.3-0.3l-1.6-18l-1.2-0.1l-4.7-1.8l-2-5.4l-14.4,0.6c-7.1,2.2-11.2,4.2-13.7,6.8c-0.1,0-0.6,0.4-3,0.4c-2.2,0-5.2-0.3-8.5-0.7l-24.9-6l-15-4.5l-2.4-0.9c-12.3-4.5-21.2-9.4-24.2-13.6c-2.1-3.1-5.4-4.7-9.7-4.7c-0.7,0-1.5,0.1-2.6,0.2l-11.2,3.5c-4.7,1-8.1,3.5-10.3,7.6c-1.5,2.7-2.1,6.4-1.6,10.8l-1.4,9.6c-0.3,1.9-1.9,3.6-3.8,4.5c-9.4,2.5-19.1-0.7-29.8-9.1l-7.5-1.5c-1.3,0-5.1,0-6.3-1.7l-0.4-0.5c-2.2-1.9-3.3-4-3.2-6.6v-0.4l-1.7-5.9l-4.9-2.7l-5.5-1.2l-3.1-2.8l-3.7-2.7l-7.9,0.5h-8.9c-0.8,0-2.5-0.4-5.6-3l-5-2.5l-0.2-1.4l-1.8-0.1c-11.3-4.2-13.5-7.5-13.9-8.8c-0.2-0.6-0.1-1.4,0.2-2l8.6-12.7c3.1-6.6,3-11.2-0.5-14.3c-0.8-0.5-2.5-2.9-0.8-13.5l1.6-7.9l-6.5,3.7l-0.9,0.9c-0.1-0.1-0.5-0.3-1.5-2.3l-5.5-6.9l-1.6-0.2c-2.2,0-4.3,1.1-7.5,3.9c-4.2,3.5-7.4,4.8-9.7,5.5l-0.5,0.2l-4.1-1l-4.5-2.6l-4.9,1.7l-3,1.6l-2.3-2l-4-2.5l-3.8,2.8l-0.5,0.5c-1.4,1.9-2,1.9-2.2,1.9l-10.5-0.5l-20.7,1.5l-18.7,2c-5,0-9,2-11.9,6.1l-3.1,4.7l-4.2,2.7l-6.1,0.5l-7.4,2.1l-0.4,0.5c-3.5,3.7-7,5.9-9.8,6.4h-1.3l-8.6-1.6L254.5,45l-0.8,0.2c-4,1.7-6.6,1.3-10.5-2.4l-5.9-4.1l-3.2-1.4l-4.7,0.3l0.3,0.3l0,0c-5,13.6-10.5,22.8-16.5,27.9l-12.8,7.1c-5.7,4.2-9,7.7-10.9,11.8L186,98.1l-2.2,3.8l-2.6,5.4l1.5,11.6c0.7,3.5-0.1,6.7-2.5,9.7l-21.9,21.8l-13.4,4.6l-3.3,6h0.5l-2.7,6.4l-8.1,8.2c-2.8,2.5-5.3,7.6-7.9,16.6c-2.8,8.8-6.5,13.2-7.8,14.6c-10.8,15.4-18.1,28.2-21,37.1l-0.1,0.4h-0.1l-0.2,1.1l-0.6,1.7h0.4c-0.4,2.9,0.2,5.3,1.8,7l1.4,1.4l1.5-1.2c1.2-0.9,2.5-1.5,3.7-1.5c0.2,0,0.4,0,0.4-0.1c1.1,0.8,1.9,2.5,2.3,4.8l0,8.3c-0.5,3.1-1.3,4.6-1.9,5.2l-1.3,1.5l1.2,1.6c2.6,3.5,3.9,7.4,3.9,12.5c0.4,5.6-0.3,12.4-2,19.6l-0.3,1.2l-1.4,4.5c-3.2,8.7-6.6,15-10.2,18.8l-1.8,1.9l7.5,6.2c0.7,1.5,1.1,2.7,1.1,4.4l0.1,0.7l0.1,0.2l-1.2,7l-0.4,0l0.2,1.6l-0.3,1.7l0.5,0l0.7,5.9l2,4.5l0.9,1.5l-0.3,0.6l1.5,1.1c2.1,1.6,4,2.4,5.9,2.4c0.3,0,0.6,0,1.3-0.1l5.1,0.9l3.3,10.6l-0.2,0.8l4.5,2.5l0.7,0.3c3.4,0.4,7,3.4,11.4,9.4c2.5,3.3,4.4,6.4,5.9,9l1.9,3.2v4.2l-1.2,3l-0.2,0.6c-0.5,4.3,2.2,7.3,7.9,9c3.8,1.5,8.3,4.5,13,8.5l0.6,0.8l-0.4,0.5l2.1,2l0.1,0.1l0,0L177,447c12.3,12,22.4,18.3,30.1,18.9h1l0,0.4l1.6-0.4h1.5l0-0.4l31.4-7.2l22.9-2.1l0.5-0.9h0c3.7,0.3,6.4,1.7,7.5,3.9l0.9,1.9l31.2-12.4l4.7-2l8.1-2.6l0.2,1.5l15.2-3.6l0-0.2l2.1-0.6c6.4-0.9,11.5-0.1,15.6,2.3c2.6,1.9,4.9,4.7,6.7,8.4l4.6,10.3l0.3,0.5c2.7,3.5,6,5,10.8,5h0.1l12-1.6l6.1-1.4l3.7,0.5l0.2-0.3l0.1,0c2,0.8,4.8,2.6,8.1,4.7l1.2,0.8c3,1.7,4.7,4,5.5,7.1l1.9,8.2l2.2,5.8l0.5,0.7c2.3,2.4,5.1,3.1,8.2,2.8l6.1,1.5l1.4,2.2c0.8,2.1,0.3,5.4-1.4,10.8c-0.1,0.2-0.6,0.4-2,0.4l-6.7-0.6l-7.5,2.3l-0.5,0.7c-0.7,1.2-0.9,2.8-0.5,5.5c-7.5,9.4-11.8,16.4-8.5,19.9c9.1,9.7,17.6,20.2,26,32.2l0.8,1.2l8.4,13.2l-0.1,0.2l7.9,14.1l0.3,0.7c3.5,7.5,5.8,14.5,7.3,21.7c4,25.7,7.3,49.9,4,53.9c-5.9,8-10.4,16.2-13.3,24.3c-4.7,11-7,20.4-7.1,29.1c-1.8,3.1-1.9,7.2-1.9,11.9l-0.3,0l0.3,1.5v0.8h0.2l1.8,9.1c2.7,8.7,6.4,17.3,10.9,25.7l13.6,26.4c4.6,10.3,7.1,17.2,7.9,22.6l6.6,40.2c3.3,10.9,7.8,21.5,13.1,30.6l-0.1,0.1l0.8,1.1l0.7,1.2l0.1-0.1l1.9,3c2.8,4.9,6.7,11.8,10.9,19.9c6.2,12.2,9.4,22.2,11.6,29.6c-0.1,1.9-0.7,3.5-2,5.2c-2,2.1-2.9,5.2-2.1,7.6l5,10.5l-0.9,3.1l-0.6,4.1l5.9,2.3l4.9,0.6l4.8,4.1l26.5-6.7l23.5-4.4l12.8,2.9c4,0.8,7.6-0.4,11.2-4.6l4.8-1.4h7.7l16.5-14.4l17.5-17.7l15.6-23.5c2-3,7.8-12.1,11-14.2c4.8-3.5,7.9-8.3,9.9-15.3l3.6-17.5l-0.6-0.1l0.8-10.4l-1.3-3.2l1.1-1.8l7.6-6.7L711,843l5.7-5.1c3.3-3.4,5.6-13.9,6.9-22.3c0.6-4.8-1.3-12.3-5.3-21.3c-3.5-7-5-13.2-4.2-17.7l14.8-16.1c9.5-9.5,13.3-11.4,15-11.7c8.5-2.7,15.9-7.4,25.2-16l16.3-23.5l-2.5-12.7c-2.4-8.2-3.2-12.9-3.2-14.5l1.4-16.1l-0.4-12.3l0.7-0.6l-0.7-0.7l-0.1-2.5l-1.4,1.1l-8.1-8.1c-0.1-0.7-0.3-1.7-0.5-3l-0.2-1c-0.3-2.4-0.9-5.8-1.6-10.1l-0.9-4.8l-2.2-3.6l2.4-4.5l0.3-6.9l-2.4-7.8c-1.7-6.6-1.5-13.1,0.6-18.4l0.7-1.8l0,0l7.2-17c2.9-8.6,5.2-10.7,6.3-11.2c3.2-1.4,6.9-4.4,10.3-7.2l0.1,0.3l1.3-1.5l1.2-1l-0.1-0.3l18.6-21.6l21.7-20.4c10.7-9.7,18.8-15.2,22.9-17.2l0.8-0.4l0.3-0.9c2.1-5.7,6.3-13.6,12.4-23.3l16.6-24.1l14.1-25.7c4.2-9.8,6.3-19,6.2-26.8l1.5-6.9L907.2,369.6z"/></g>
</svg>