<?xml version="1.0" encoding="utf-8"?>
<!-- Svg Vector Icons : http://www.onlinewebfonts.com/icon -->
<!DOCTYPE svg PUBLIC "-//W3C//DTD SVG 1.1//EN" "http://www.w3.org/Graphics/SVG/1.1/DTD/svg11.dtd">
<svg version="1.1" xmlns="http://www.w3.org/2000/svg" xmlns:xlink="http://www.w3.org/1999/xlink" x="0px" y="0px" viewBox="0 0 1000 1000" enable-background="new 0 0 1000 1000" xml:space="preserve">
<metadata> Svg Vector Icons : http://www.onlinewebfonts.com/icon </metadata>
<g><path d="M988.9,378.9l-2.1-2.3l-5-3.9c-1.9-1.3-3.3-2.8-4.3-4.6l-0.3-0.5l-4-0.3l-4,0.2l-2.5-1.5c-1-0.7-1.8-1.1-2.6-1.1c-0.7,0-1.6,0.2-2.3,1.3l-0.1,0.2c-0.2,0.6-0.4,2,0,6.9c0.3,1.8,0.2,2.7,0,3.1c-1-0.1-1.4-0.5-1.4-1.8c-0.2-0.5-0.4-1.3-0.3-2.6c0,0,0-0.1,0-0.1c0-0.4,0-0.9,0.1-1.4c-1.1-6.7-4-12-8.8-15.8v0l-0.1-0.1l-8-5.3l-1.8-1.2l-12.7-8.4l-1.2-0.8l-6.8-4.4l-7.6-3.2l-5.9-3.1c-1.2-1.1-3.3-1.6-6.2-1.6c-1.2,0-2.4,0.1-3.5,0.3c-2.7,0.1-4.7,0.2-6.3,0.2c-1.9,0-2.7-0.1-3-0.2l-0.2,0l-2.1,0.2v-0.1c-0.1-1-0.9-2.5-4.4-2.5h0l-5.9-0.9c-1.6-0.2-2.9-0.4-3.9-0.3c-1,0-1.8,0.2-2.6,0.5c-2.6,1.6-2.9,3.6-2.7,4.9c0.3,1.3,0.9,2.6,2.1,4.1l2.4,4.1c0.2,0.4,0.2,0.7,0.2,1.1c0,0.2,0,0.4-0.1,0.6c-0.1,0.3-0.2,0.6-0.4,0.9c-3.2,3.3-5,3.9-6,3.9c-1.2,0-2.2-1-3.1-3l-6.5-6.4l-6.6-4.7l-0.3-0.2h-0.4c-0.9,0-1.7,0.6-4.2,2.3l-0.6,0.4c-1,1.1-2.5,1.5-4.5,1.5c-4.3,0-7.5-1.1-9.5-3.1c-0.2-0.5-0.8-1.2-2.3-1.2c-0.9,0-2.1,0.2-3.6,0.7l-6,1c-0.2-0.1-0.5-0.1-0.8-0.1c-1.6,0-3.2,1.4-4.4,4.1l-1.6,2h-0.5c-0.2-0.6-0.2-1.6-0.2-2.8l-0.8-4.3l-3.6-0.8l-2.4,0.1l0-2.8c0.2-1.1,0.2-2.1,0.1-3.1c0,0-0.1-0.1-0.1-0.1c-0.2-2.9-1.2-5.5-3-8c-1-1.4-2.3-2.5-3.8-3.5c-0.1-0.1-0.2-0.2-0.3-0.3c-0.1,0-0.2-0.1-0.2-0.1c-1.5-1-3.2-1.8-5.2-2.5c-3.6-1.4-8-1.9-13.3-1.6c-3.2,0.3-6.4,1-9.4,2c-0.2,0.1-0.3,0.1-0.4,0.2c-1.1,0.4-2.2,0.8-3.2,1.2c-2,1.2-4.2,1.8-5.9,1.8c-0.2,0-0.5,0-0.8,0c-1.1,0-2.5-1.1-3.7-2l-4.1-4.7l-5.9-4.3l-0.4-0.2c-3.7-1-5.8-2.4-6.1-3.4c-0.5-0.8-0.3-1.7,0.7-3.2l2-3.4l0.1-0.4c0-2-2.4-2.5-5.3-3.2l-9.3-0.4h-0.2l-0.2,0l0,0h0c-1.6,0.4-3.4,1.1-4.3,3l-2.3,3l-5,2.6c-0.7,0.1-1.3,0.2-1.8,0.3l5.7-3.8c1.2-0.7,1.3-1.5,1.3-1.9c0-0.3-0.2-0.6-0.4-0.9c0,0,0,0,0,0c-0.5-0.5-1.3-1-2.5-1.3l-3.7-0.4l0.7-0.6c0.3-0.3,0.6-0.6,0.9-0.9c0.1-0.1,0.2-0.3,0.3-0.4c0.1-0.1,0.2-0.3,0.3-0.4c0.4-0.6,0.6-1.2,0.5-1.6c-0.1-0.4-0.3-1.1-1.2-1.5l-13.7-3.6l-12-1.9l-0.6-0.2l-4.3,4c-0.8,0.4-2.2,1-4.2,1.5c-0.6,0.2-1.3,0.4-2,0.5h0c0,0,0,0-0.1,0c-0.5,0.1-2.2,0.8-3.2,2.5c-0.3,0.3-0.4,0.5-0.6,0.8c-0.1,0.2-0.4,0.4-0.4,0.5c-0.2,0.4-0.3,0.8-0.3,1.2c0,0.5,0.3,1.1,1.1,1.7l0.3,0.2h0.4c0.7,0,1.6-0.3,3.8-1.4c0.1,0.2,0.1,0.5,0.2,1l-0.2,8.7c0,1.3-0.2,2.1-0.6,2.2c-0.3-0.1-1.2-0.4-2.3-1c-0.2-0.1-0.3-0.1-0.5-0.3c0,0,0,0,0,0c-1.5-1.1-2.8-1.3-3.6-1.3c-0.3,0-0.5,0-1.1,0.2c-1.9,0.8-2.1,3.2-2.1,5.2c0,2.3-0.9,2.3-1.3,2.3c-0.7,0-1.7-0.3-2.7-0.7l-8-5.8l-0.4-0.2c-1.7-0.5-3.4-0.1-5.4,1.2l-5.1,2.8c-1.2,0.7-2.2,0.9-3.2,0.8c-0.3,0-0.6-0.1-0.8-0.3c-1.5-0.5-3-2.1-4.4-4.6c-1.1-1.6-1.8-2.6-2.6-3.1c-0.3-0.1-0.6-0.2-1-0.2c-0.3,0-0.7,0.1-0.8,0.2c-1.1,0.4-1.8,2-2.1,4.1l-1.5,5.8l-1.6,4c-0.6,0.5-1.1,1-1.7,1.2c0,0-0.1,0.1-0.2,0.1c-0.2,0.1-0.4,0.2-0.6,0.2c-0.3,0.1-0.5,0.1-0.7,0.2c-0.1,0-0.1,0-0.2,0c-0.2,0-0.4-0.1-0.6-0.1c-0.3,0-0.5-0.1-0.8-0.1c-0.2-0.1-0.3-0.1-0.5-0.2c-0.3-0.1-0.6-0.3-1-0.5c-0.1-0.1-0.3-0.2-0.4-0.3c-0.4-0.3-0.8-0.6-1.2-1c-0.1-0.1-0.2-0.2-0.3-0.3c-0.5-0.5-1.1-1-1.6-1.7l-11.8-16.4c-1.1-1.4-3.2-2.7-6.3-3.7c-2.6-0.6-3.6-1.2-3.7-1.2c0-0.1-0.3-1,4.4-4.5l9.4-6.8c1.8-1.6,2.2-3.8,0.9-6c-1.4-2-3.6-3.4-6.3-4.1l-0.2-0.1l-0.7,0.1l-10.3,0l-4.4-2.8c-1-1-2.8-2.5-4.3-2.7v0c0,0,0,0,0,0c0,0-0.1-0.1-0.1-0.1c-0.3-0.1-0.5-0.1-0.8-0.1c-2.6-0.5-4.4,0-5.9,1.5c-1.8,1.9-2.1,3.6-0.9,5.7c1.7,2.9,1.8,4.6,1.2,5.6c0,0.1,0,0.1-0.1,0.1c-0.1,0.1-0.2,0.3-0.3,0.4c-0.1,0.1-0.2,0.2-0.3,0.2c-0.1,0.1-0.2,0.2-0.3,0.2c-0.1,0.1-0.3,0.2-0.4,0.2c-0.1,0.1-0.2,0.1-0.3,0.2l-0.3,0.2l-0.1,0.1c-0.6,0.5-1,1.4-1.1,2l-0.6,0.7l-2.2-0.7c-1.9-0.9-3.7-1.6-5.2-1.2c-1.1,0.1-2.1,0.1-3.1,0.1c-1,0-2,0.1-3,0.1c-5.4,0-14.6-0.6-14.6-4.6c0-3.6-0.8-6-2.6-7.2l-6.3-1.3h-15.1c-0.3-0.1-0.5-0.1-0.7-0.1c-0.2,0-0.4-0.1-0.6-0.1c-0.2,0-0.4,0.1-0.6,0.2c-0.2,0.1-0.4,0.1-0.5,0.2c-0.1,0.1-0.3,0.2-0.4,0.4c-0.5,0.4-0.9,0.8-1.4,1.4l-1.4,3.4c-0.1,0.2-0.2,0.4-0.3,0.5c0-0.1,0-0.2-0.1-0.3c0-0.1,0-0.1,0-0.2c0-0.1,0-0.2,0-0.3c0-0.1,0-0.2,0-0.3c0-0.1,0-0.2,0.1-0.4c0-0.1,0-0.2,0.1-0.3c0.1-0.2,0.2-0.4,0.4-0.7c0.8-2.1,0.7-3.8-0.2-4.9c-0.5-0.6-1.5-1.4-3.7-1.4H511c0,0,0,0,0,0h0l-0.3,0l-3.7,0.2l-3,0.4c-1.2,0-2.3-0.9-3.3-2.7l-3.4-3.3l-0.5,0c-2-0.2-3.1,0.2-3.9,1c-1,1-0.8,2.4-0.6,3.4l0.1,0.3c1.2,2.2,1.7,3.4,1.8,3.9c0,0.2,0.1,0.4,0.1,0.4l-0.1,0.3c0,0.1-0.1,0.2-0.3,0.4c-0.3,0.3-0.7,0.6-1.3,0.9c-1.7,1-4.2,2.2-5.3,2.8l-9.5,3.4c-2,0.2-4.3,1.2-6.9,2.8l-4.1,2.9l1.9-4c2.2-3.2,6.2-7,12.5-11.6c0.9-0.6,1.7-1.2,2.5-1.8c0.1-0.1,0.2-0.2,0.3-0.2c5.3-3.9,9.2-7,11.1-9.5l6.8-7.1c3.3-3.3,5.8-5.1,7.5-6c2.7-1.2,4-2.6,4.9-3.6l0.3-0.2l0.6-4.7l-1-3.8c0-1.6,0-2.9,0.9-3.9c1.3-2.5,2.2-4.9,0.9-6.5c-0.2-0.2-0.4-0.4-0.7-0.6l-2.1-1l-1.7-1.5l-3.4-6.7l-0.2-0.4l-0.2-0.3c-2-2.3-6-3.8-11.5-5.5c-6.2-2.2-10.5-2.6-13.1-1l-4.7,4.8c-0.5,0.6-1.1,0.7-1.1,0.7l-3.2-0.6c-0.5-0.1-0.9-0.2-1.2-0.3c0,0-0.1,0-0.1,0c-0.3-0.1-0.5-0.2-0.7-0.4l0,0c-0.3-0.3-0.3-0.5-0.3-0.8l2.8-4.4c1.1-1.3,1.4-2.3,1.1-3.2c-0.2-0.5-0.7-1.2-2.3-1.6h-0.1l-13.8-1.7c-0.1-0.1-0.2-0.3-0.2-0.4c0-0.2,0-1.1,1.9-2.8c2.5-3,3.6-5.4,3.2-7.2c-0.2-1.1-0.9-1.9-1.9-2.3c-2.3-1.8-6.1-1.8-11.1-0.2c-5.3,1.4-9.3,3.9-12.1,7.5c-3.6,4.1-4.3,8.5-2.1,13.9c0.6,1.1,0.3,1.5,0.3,1.7c-0.3,0.6-1.3,1.1-2.9,1.5l-4.3,1l-2,2.2l-2,5.9l-0.6,0.3l-1.7-0.5l-0.4,0c-0.4,0-0.8,0-1.2,0.1c-1.3,0.2-2.6,0.8-3.6,1.7c-2.8,2.5-4.9,3.7-6.5,3.8c-0.5,0.1-1,0-1.5-0.3l-2.2-2.1l-2.3-3.5c-2.8-3.8-6.5-4-11.1-0.1c-3.6,3.4-6.8,6.2-8.3,6.8l-13.7,3.7c-1.7,0.4-3.1,0.9-4.4,1.4c-3.9,1.4-6.3,3-7.4,4.9c-0.1,0.1-0.1,0.1-0.2,0.1c-4.5,2.6-7.6,5.2-9.9,8.2c-2.6,3.6-3.9,6.8-3.9,9.6c0,2.3,1,5.2,3.1,9.1c1.5,2.5,2,4.8,1.4,6.2c-0.9,1.5-2.4,2.8-4.7,3.8l0.1-0.1c1.9-2.2,2.6-3.8,2.1-4.8l-0.3-0.5l-4.1-0.3l-0.3,0.1c-1.9,0.3-3.7,1-5.1,2l-2.8,2c-0.7-1.2-2.2-1.8-4.1-1.8l-5.1,1.5l-12.8,1.3c-4.6,0-6.1,2.3-6.5,4.4c-1,1.8-0.9,4.4,0.2,8.2c0.9,2.6,2.1,5.2,3.8,8.4c1.7,2.6,3.1,4.2,4.5,5.3l0,0l0.3,0.3c3.9,2.1,6.4,5.8,7.6,10.9c-0.3-0.4-0.8-0.7-1.4-0.7h-6.4c-0.3,0-0.6-0.1-1-0.3c0,0-0.1,0-0.1-0.1c-0.2-0.2-0.5-0.4-0.8-0.6c-1-0.8-2.1-2-2.7-2.6l-5.7-5.9l-1.7-1.3l-2.7-1.2l-3.9-0.1l-3.2,1.2c-1.5,0.7-2.4,1.6-2.4,2.8l0.7,4.4c0,0-0.1,0-0.1,0c-0.1,0.1-0.3,0.1-0.4,0.1c-0.1,0.1-0.3,0.1-0.5,0.1l-3.4-1c-1.5-0.9-2.4-1.2-3.1-1.2c-0.2,0-0.3,0-0.4,0.1l-0.1,0l-0.4,0.1c-1.4,0.4-3,1.6-2.2,5c0.3,2.1,1.3,3.5,3.1,4.1l6.4,1.5c2.2,0.5,3.6,1.7,3.6,3l0.5,3.5v0.4l-3-2l-4.1-1.5c-4.2-1-7.4-2.4-9.9-4.3c-3.3-2.5-3.8-5.2-1.5-8.1c1.1-1.5,1.9-4,2.4-8.1c0.3-4.5,0-7.2-1.8-7.8c-1.1-0.5-2.1-0.5-2.9-0.1c-1.1,0.4-2.3,1.5-2.5,4.4l-0.3,6.8c-0.2,1.7-1.8,3.4-5.2,5.5l-3.1,2.1l-2.6,2.8l2.9,8.4c2.5,5.7,2.7,8.2,2.3,9.5l-1.2,13.1c0.1,1.5,0.3,5,2.2,7.4c0.1,0.1,0.3,0.3,0.4,0.4c0.2,0.2,0.4,0.4,0.6,0.6c0.3,0.2,0.6,0.4,1,0.6c0.2,0.1,0.3,0.2,0.5,0.3c0.6,0.2,1.2,0.4,1.9,0.5h2.7l2.6-0.7l4.5-0.6l3.7,1.7c2.1,1.4,3.9,3.5,5.5,6.1c1.8,3.4,1.8,5.7,0.2,7.5c-1.8,1.8-2.5,3.2-2.3,4.4c0.2,0.9,0.8,1.5,2,2l2.5,0.8l1.5,1c0,0.2,0.1,0.4,0,0.6c-0.1,0.2-0.5,0.4-0.6,0.4c-1.3,0.2-2.6,0.2-3.3,0.1c-2.5-0.9-3.6-3.2-3.4-6.9l0.5-5.5c0-1.7-0.4-3.4-1.2-5.1c-1.5-2.1-3.1-3-5.5-3.3c-1.2-0.1-2.2,0-3.2,0.2c-1.1,0.2-2.1,0.6-2.8,1.2c-0.6,0.3-1.2,0.6-1.6,1c-0.4,0.2-0.6,0.5-0.9,0.8c-0.1,0.1-0.3,0.2-0.4,0.4c-0.9,0.9-1.6,2-2.3,3.2c-0.6,1.6-0.7,3.5-0.4,5.2c0,0.1,0,0.2,0.1,0.3c0.1,0.6,0.3,1.2,0.6,1.8c1,2.5,0.8,4.5-0.3,6.2l-9.5,12.4c-2.7,2.9-4.2,4.1-4.7,4.4l-9.4-0.2c-1.3,0-2.9-0.4-4.2-0.9l-2.7-2.2c0,0,0.2-0.1,0.6-0.2l7.2,1c2.4,0.8,4.7-0.1,5.5-2.3l0.6-4.5l7.4-8l0.2-0.3c0.2-0.6,0.6-1.8,0.6-3.3l0.2-2.7c0.3-0.3,0.4-0.7,0.6-1.1c0.1-0.2,0.3-0.4,0.4-0.7c0.1-0.5,0.2-1.1,0.2-1.6c0-0.3,0.1-0.5,0.1-0.9c0-0.7-0.1-1.6-0.3-2.5c0-0.3,0-0.5-0.1-0.8c-0.2-1.2-0.6-2.5-1-3.9l-1.9-6.8l-1.2-6.2l1.3-14.3c0.3-5.9-0.5-10.4-2.4-13.8c-0.9-1.1-1.3-2.3-1.1-3.6l1.1-3.5l2.5-4.4c0.7-1.9,1.3-4.1,1.3-5.8c0-4-0.4-7-1.3-8.8c-0.9-1.6-2.7-2.5-5-2.5l-5.7,1.1l-7.7,0.4c-0.3-0.1-0.6-0.1-0.9-0.1c-1.7,0-4.5,0.7-5.2,5.3l-0.3,4c-0.2,1.5-0.7,2.8-1,3.2l-0.1,0.3c-0.8,2.9-2.2,5.5-4,8.1l-5.4,6.8l-3.4,5l-0.1,0.3c-1,3,2.2,4.7,3.2,5.3l0.3,0.1c0.2,0.1,0.8,1,0.8,2.8l-0.5,4.5l-1,1.9l-2.5,3.3c-0.9,1.4-1,2.6-0.3,3.6c0.7,1.1,2.3,1.6,4.8,1.6c0.4,0,0.8,0.1,1.2,0.2c0.1,0.1,0.3,0.1,0.4,0.2c0.2,0.1,0.4,0.2,0.5,0.3l0.7,3.5c0.7,2.5,1.9,4.5,3.6,6c0.2,0.2,0.4,0.4,0.6,0.6c0.5,0.4,1,0.6,1.5,0.9c0.3,0.1,0.4,0.2,0.6,0.3c0,0.3-0.1,0.9-0.5,1.9c-0.1,0.3-0.3,0.7-0.4,1.1l-2,3.9c0,0-0.1,0-0.1,0c-0.3,0-1-0.3-2.5-1.9c-0.1,2-0.3,4.5-0.8,8c-1.4,9.8-7,11.1-12.6,23.4c-5.6,12.3-18.2,25.8-30.8,32c-12.6,6.1-21,4.9-15.4,17.2c5.6,12.3-2.8,9.8-2.8,19.7c0,9.8-7,29.5-8.4,34.4c-1.4,4.9-9.8,14.8-16.8,17.2c-7,2.5-2.8,16,1.4,17.2c4.2,1.2,7,13.5,1.4,22.1s-14,8.6-21,11.1c-7,2.5-16.8,8.6-15.4,14.8c1.4,6.1,3.4,10.1,8.4,11.1c1.4,0.2,2.4,0.8,3.4,1.5c0.5-0.2,1-0.4,1.6-0.6c3.2-1,5.7-1.1,7.9-0.1l4.7,0.3c1.6-0.2,2.3-0.1,2.8,0.4c1.6,1.7,1.9,3.9,0.8,6.7l-1.2,3.1l-0.9,0.8l-7.3,0.6l-0.3,0.1c-2.7,0.9-4,1.7-4.2,2.7c-0.1,0.3-0.1,1,0.8,1.6c0.8,0.6,1.2,0.9,1.4,1.1c-0.1,0-0.2,0-0.4,0l-3.9-0.3l-0.3,0.2c-0.8,0.4-1.8,1.2-1.8,2c0,0.8,0.8,1.4,1,1.5l0.4,0.2c1.6,0.4,2.4,0.7,2.8,0.9c1.5,5.3,5,9.1,10.4,11.4c0.5,0.1,1,1.1,0.7,3.1v1.8l0,7.9l2.9-7.6l0.6-0.2c0.7-0.3,1.6-0.7,2.4-1.2c0.6-0.2,1.4-0.4,1.7,0.6c0.3,2.2,1.2,4,2,5l1.7,1.1l1,1c0.1,0.6-0.1,0.9-0.2,1c-0.1,0.1-0.3,0.4-1.1,0.5h-2.9l-2.5-0.2l-1.7-0.5l-2.2,0.5l-1.9,2.9c-0.8,1.3-1,3.1,0.3,3.7l4.3,0.5c0.6,0.2,1.1,0.4,1.1,0.6c0.1,0.2-0.1,0.6-0.5,1l-1.3,1.7l1.7,1.5c0.6,0.4,1,2.7,1.4,5.7l0.3,1.8v5h-0.2l-0.1,0.9c-0.2,1.2-0.4,2.5-0.7,2.9c-1.8,1.6-5.3,2.4-10.3,2.4c-0.5,0-1,0-1.5,0c-5.9,0-7.3-1.6-7.9-3c-1.4-2.3-3.1-3.5-4.9-3.5h0l-2.4-0.4l-2.3-1c-0.6-0.6-0.7-2.1-0.3-4.5c-11.8,3.3-21.6,8.2-21.6,8.2l-6.1-1l0.6,0.9l-0.1,0.1c-0.8,0.6-1.2,0.9-1.7,0.8l-0.5-1.7l-3.2-0.8l-3.5,0.4l-2.2-0.3l0.6-0.8h0l-2,0.6h-0.1l0.1,0.1l-1.9,0.6l-1.7,1.2l-4.6,0.4l-3.9-0.4l-0.3,0.2c-4.1,2.1-6.8,3.1-8.5,3.1l-3-0.6l-3-1.2l-3.3,1.6l-3.3-0.2l-2.9-0.7l-0.3,0c-0.3,0.1-1.2,0.2-1.5,0.8c-0.3,0.4-0.2,1,0.1,1.6c0.6,0.9,0.3,1.2,0.1,1.3l-0.3,0.2l-0.9,2h-4.2l0.5,6.7l-0.6,2.6l-0.3,0l-0.9,3.3l-3.1,7.6l-0.2,0.1l-0.9,1.5c-1.9,4-3.7,6.6-5,8.1l-0.8-1.6l-1.2,1.1c-1.2,1.1-2.3,1.6-3.3,1.2l-2.6-0.4l-1,1.1l0.4,8.4l2.2,4.5c1.1,2.7,3.5,7.3,6,7.7l1,0.2l2.7-6.4c0.7-2.3,1.2-3.3,1.7-3.7l0.1,0.3l0.2,0.9l1-0.3h0v1.1l-0.7,1.9l-1.3,4.8l0,0.2c0.3,1.6,1.1,2.8,2.5,3.6l6.7,6.5c1.5,2.1,2.8,4.3,3.9,7l2.1,5.2l2.3,2.4l2.9,1.5c2.4,1.5,4,3.3,5.4,6.1l1.2,6c0.2,1.9,0.6,4.5,1.7,5.8l3.7,3l3.8,2.9c0.7,0.8,1.7,2.5,2.6,4.7l2.8,4.4l4.4,5c1.6,1.6,2.8,3.2,3.5,4.8l0.4,3l0.1-0.1v0.3l-0.3,3.9l1.8,5.6c0.6,1.5,0.9,3.2,1,5v1l16.9,0.2l12.6-3.9l6.7-1.2l25.6-13.2l0,0l0.5-0.3l0.6-0.3l0,0l3.6-2.1l3.8-0.4l4.2-0.3l0.9-3.2l0.4-2.1l7.2-0.4l1.1-2.5c0.5-1.2,0.9-1.5,1-1.6l2.9-0.9l3.6-0.7l1.1-4.2c0-1.6,0.4-2.6,0.5-2.8l5.4-3.9c3.6-2.4,7.9-6.2,4-11.5l-4.3-3.6l-4.2-0.7l-0.2,0c-2.7,0.5-5.7-1.4-8.1-4.8l-2.2-4l-0.2-0.4c-0.8-1.8-1.1-3.6-0.7-5.6l0.4-3.4l-7,7.3c-2.2,2.6-4.6,4.9-6.4,6.1c-1.9,1.1-5,1.6-8.7,1.6c-3.3,0-6.2-0.5-8.4-1.6l-0.7-0.4l-0.1-0.3c1.5-2.5,2-4.9,1.8-7.5c0-3-1.2-3.6-2.2-3.6c-0.6,0-1.3,0.3-1.9,0.7c-3.7,2.4-3.7,4.8-2.9,6.6l1.2,2.1l0.1,0.4l0,0c-1.4,0.6-2.2-1.1-2.5-1.8l-2.7-5.8c-0.4-0.8-0.3-1.4,0.2-2.4l0.1-3.1l-3.7-2.6c-1.8-1-2.9-1.9-3.2-2.7l-1.7-4.2l0.4,0l-2.6-4.5l-0.2-0.9c-0.3-1.1-0.2-1.5-0.1-1.7l2.3-2.6l5.7-0.4c2.9,0.7,4.9,1.7,5.6,2.8c0.3,0.6,0.4,1.2,0.1,1.8c-0.3,1.4,1,3.2,3.7,6.2l7.7,5.4l9.1,4.5l6.7,0.8l6.1-1.7l4.5-0.6c0.1,0,0.4,0,0.6,0.2c0.5,0.4,0.7,1.2,0.7,2.3c0.6,3.7,3.9,6,10.5,7.2l20.2,1.1l0-0.2l0.3,0.1l20.5-1.1c1.1,0,2.1-0.1,3-0.1c6.3,0,7.1,0.9,7.3,1.1l8.3,9l-0.5,0.3l1.1,0.8c3.1,2.3,6.7,3.6,10.8,4.1l-2.3,1.1c-1.5,0.7-2.3,1.6-2.3,2.6c0,0.9,0.6,1.8,1.7,2.6l4.9,4.3c0.6,0.5,2.1,1.2,3.7,1.5l2.8-0.2l4.2-1.6c1.9-1.1,2.8-2,2.8-3.1c0-2.4,0.3-3.2,0.3-3.3l0.2,0.1c1,0.5,1.6,2.4,1.6,5l1,1.8l1.8,1.7L262,755l-1.2,1.3c-1.3,2.3-1.3,5.8,0,11l0.5,1.5c1.4,4.2,2.4,7.2,2.4,9c0.6,2.2,2.2,5.1,5,9.1c2.6,3.2,4.3,6.3,4.6,8.1c-0.8,2,0,4.6,2.5,8.3l5.3,7.3l4.4,11.6c1.2,1.8,2.4,2.7,3.9,2.7c1.7,0,3.4-1.3,5.1-4c0.3-0.5,0.5-0.5,2.4-0.5c1.4,0,3.1,0,3.1-1.2l0.7-4.3l4-2.6v-3.9l0.3-4.3l2.9-7.8l-1-5l-0.3-5c0.9-1.9,3.1-3.7,7-5.8c3.8-2,6.6-4.1,8.1-6.3c0.5-1.1,3.2-2.6,5.9-4c3.8-2.2,5.9-3.9,7.2-5.9l3-2l5-2.2c3.5-1.7,6.7-3.6,6-5.8l-0.1-0.2c-0.4-0.7-0.6-1.3-0.4-1.7c0.3-0.6,0.8-1.2,1.7-1.6l5.9-3.4l0.1,0.1c0.5,0.4,0.9,0.7,1.2,0.9l1.9,1.3v-0.8l2.2,1.4l0.4-2.3l1.2,1.8l1-1.6l0.3-0.4l0.4,0.4l1.9,0.3l0.9-1.4l1,1.5l3-1.5l0.2-0.3c0.9-1.4,0.9-2.6,0.2-3.5c-0.6-0.9-0.7-1.3-0.8-1.4c0.1,0,0.2,0,0.4,0.1l2.3,0.8l1.8,0.1l4.9,7.2l1.5,3.2l0.4-0.2l0,0c3.1,4.7,4.8,6,5.8,6.5c0.8,0.3,1.6,0.6,2.2,1.2l-1.6,1.4l2.7,1.7c0.9,0.5,1.3,0.7,1.7,1.2c0,0.1,0.1,0.2,0.1,0.3l0.1,0.3c0.5,0.9,1.1,2.3,1.4,4.2c0.6,2.3,0.9,4,0.3,5l-1.7,3.2c-1,1.8-0.6,2.8,0,3.4l0.5,0.6l0.8-0.2c0.3-0.1,0.7-0.3,1.3-1l1.2-0.8c0,0.3,0,0.7,0,1c0,0.2,0,0.4,0,0.5v2.2l2.8-2.1l0.3,0.8l0.5,0.7h1.3l3.2-3l2.5-1.4l2.6-2.5v-2.5l1.5,1.3l2.4,3l0.9,3.4l0.3,4.1c0,2.4,0.9,5.1,2.5,7.7l3.4,7.5v4.9l-0.4,4.1c-0.6,0.7-0.7,1.7-0.6,3l0.5,3.5l0.1-0.2c0.2,1.4,0,2.1-0.2,2.5l-2.5,3.8l0.3,0.5c0.3,0.4,0.9,0.9,3.8,2c0.1,0,0.4,0.2,0.7,0.4c3.5,0.5,6.8,1.2,10,1.9c0-0.1-0.1-0.1-0.1-0.2l-0.4-2.9l-1.8-3.4c-0.3-1-1.5-1.5-2.8-2.1l-0.6-0.3c-1.2-0.3-2-1.2-2.7-2.6c-0.1-0.4,0.4-2.2,2.2-5.4l3.1-6.3l0.8-5.8c0.9-2.5,1.9-2.8,2.8-2.8c0.4,0,0.8,0.1,1.5,0.3l1.5,3.7l3.2,0.5l2.2,0.2l3,2.5l0,0.2l1.4,1.2c1,0.9,1.4,1.7,1.8,2.6l0.2,0.6c0.1,1.7,1.5,2.2,3.1,2.4h1l0,0c-0.6,1.6,1.2,2.5,3,3.2l2.2,0.4l2,0.8c0.5,0.6,0.4,2.8,0.2,5c-0.4,2.1-0.3,3.5,0.3,4.1l0.3,0.4l1.1,0.2l6.6-4.4c2.8-2.3,5-4.4,5.3-5.1l0.3-1.7h1l4.2-0.7l0.3-0.4c0.5-0.8,1.4-1.8,3.1-2.5c1.1-0.7,2.3-1.3,4.1-2.1c2.4-1,2.5-4.9,2.1-7.9l-0.9-8l-2.8-5.1l-1.9-4.4l-12.2-10.8c-3.2-3.3-4.7-6.1-4.5-8.2c0.1-1.2,0.8-2.3,2.3-3.4l3.6-3.6c2.4-2.1,3.1-2.4,3.2-2.4l4.3-2.9l0.8-0.5l0.1,0.1l3.3-2.1l1.8,1.4c0.7,1,1.6,1.2,2.2,1.2c0.4,0,0.7-0.1,1.3-0.3c0.4-0.2,0.8-0.5,1.2-0.7l-0.7,2.3c-0.3,1.5,0.8,2.9,2.7,4.9c0.9,0.6,1.5,0.9,2.1,0.9c-0.4,0.1-0.9,0.2-1.4,0.4l-1.9,0.2l-0.4,0c-0.4,0-1.1,0.1-2.4,1.3l-3.9,3c-1.1,0.7-1.7,1.6-1.7,2.4c0,0.6,0.3,1.5,1.8,2.4l3.2,1.9l3.9-1.5l0.2-0.2c0.1-0.1,0.6-0.3,0.9-0.3l2.4-0.3l1-2l0-0.3c-0.2-1,0-1.2,0.1-1.4l1.9-2.1v-2.8l-0.2-0.3c-0.2-0.3-0.9-0.7-2.3-0.7c0.5-0.3,0.7-0.9,0.8-1.8v-0.2l-0.1-0.2c-0.9-1.9-1.2-3.5-0.8-4.5c0.2-0.4,0.5-0.7,0.8-0.8l7.4-1.5l2.2,0.7l2.4-0.4l0.4-0.1l0.2-0.2c0.2-0.1,1.1-0.5,2-0.8l0.5-0.2l2.7-1.7l-0.5-0.8c-0.3-0.4-0.4-0.8-0.3-1c0.1-0.2,0.4-0.3,0.7-0.4l1.6-0.1c10-16.8,25.6-30.8,46.9-39c0.2-2.8,0.3-5.7,0.8-8.5c-0.8-0.1-1.8-0.1-2.8,0.1l-2.8,0.3l6-3.1c0.3-1.5,0.7-2.9,1-4.3c-0.3-0.1-0.3-0.2-0.6-0.4c0.1-0.1,0.5-0.3,0.8-0.5c0.3-1.2,0.5-2.4,0.8-3.6l-3.2-2.3c-0.6-0.5-2.6-2-2.8-2.4l-5.2-8.7c-3.2-4.7-3.8-6.1-3.9-6.3l3.4-4.5l2.5-2.9l2.7,0.4l1.9-2.7c1.6-2.2,3-2.4,4-2.4c0.8,0,1.7,0.3,2.6,0.7l3.2,0.4l0.7-2l-1-2l-0.3-0.4c-0.7-0.6-1.9-0.8-2.8-0.8l-5.8-1.5l-4.5-0.9l-6.4,4.2c-0.3,0.2-0.5,0.2-0.7,0.2c-0.1,0-0.4,0-0.8-0.6c-0.3-0.5-0.4-1.4-0.4-2.6c0-1.6-0.7-2.6-2.2-3.1l-3.1-1l-2.9-1.7c-0.7-0.9-0.9-2-0.7-3.5c0.2-1.4,0.9-1.4,1.1-1.4c0.3,0,0.5,0.1,1,0.2l2.2,0.5l1.9-0.3l13.2-9.7c1.5-1.7,3-2.5,4.2-3c0.6-0.2,1.4-0.2,1.9,0.5c0.8,0.7,0.6,1.8,0.4,2.5l-3.2,5.2c-0.7,0.7-0.8,1.2-0.7,1.7c0.2,0.4,0.6,0.8,1.3,0.9l0.7,0.3c-0.9,0.8-1.6,1.4-1.9,1.9l-1.8,2.4l6.5-1.8l6.6-2.8l6.6-1.9l1.8,1.1h3.1l0.3,0l0.2-0.1c0.3,0,0.8,0.2,1.2,0.7c0.4,0.5,0.6,1.1,0.6,1.8l-1.6,4.1l-1.9,3.6l2.5,3.2c6.8-7.5,15-14,24.7-19.1l4.3-6.6l5.3-7.4l1-1.1c0.4-0.3,1-0.7,1.7-1.2l0.3,0.3l0.6-0.7l0.9-0.3l-0.4-0.3l1.7-2l0.3,0v0l0.3-0.1l0.1,0.4l2.9-0.5c0.1,1.1,0.9,1.7,2.2,1.7h0.3c0.1,0,0.2,0,0.3,0c0.3,0,0.7-0.1,1.2-0.1l1.1,1.2l0.5,0.7l0.4-0.1c8.4-15,21.1-28,38.2-36.9l1.6-5.2l3.2-3.7l2.2-4.1l0.1-0.4c0-11,0.8-17,2.6-19.6c1.7-3.4,2.7-6.5,3.3-9.7c0.7-3.5-0.1-6.9-2.1-8.9l-3.7-5l-0.1-0.1l-0.2-0.1c0,0-0.1,0-0.1-0.1c-1.2-1-3.6-2.1-6.8-3.1l-4.6-0.3l-0.3,0.1c-1.1,0.5-1.6,2-1.8,3l-0.8,2.3c-0.4,0.2-1.2,0.6-2.7,0.5l-0.6-0.4l-0.2-1.3l-0.1-0.3c-0.5-1.1-1.4-1.3-2-1.3c-0.8,0-1.7,0.4-2.6,1.2V516c0,0,0,0,0,0v-0.1c-0.1-4.5-2.2-5.2-3.5-5.2c0,0,0,0-0.1,0c0,0-0.1,0-0.1,0c-0.4,0-1,0.1-1.6,0.3c-2.3,0.8-3.6,0.9-4.2,0.9h-0.1c0.1-0.5,1.1-2.5,7.8-8.4l10.3-10.6c4.5-4.7,8.8-8.5,13.3-11.5l0.3-0.3c3.9-6,8.8-10.7,15-14.3c6.5-3.5,12.5-3.3,18.5,0.6l0.3,0.2h2.1l1-2c0.5-0.4,1-0.7,1.9-0.7c0.3,0,0.7,0.1,0.8,0c4.8,1.6,9.1,1,12-1.5l2.4-2l3.3-0.4l11.1,2.1l0.2,0c0.3,0.4,0.8,0.9,1.5,2c-0.1,0-0.2,0.1-0.3,0.1l-2.2,0.9l-0.5,0.3c-1.3,1.4-2.1,2.6-1.5,3.6c0.3,0.4,0.8,0.9,2.1,0.9c0.2,0,0.4,0,0.7,0l4.9-1.7l9.4-1.1c6.7-0.5,8.9-1,9.8-1.6l0.1,0l0.3-0.3c0.2-0.2,0.4-0.4,0.5-0.7l1.5-0.2l-1.4-0.5c0-0.1,0-0.2-0.1-0.3c-0.3-0.9-1.3-1.2-2.3-1.5l-3.5,0c-1.1-0.5-1.4-0.8-1.5-0.9l0.9-2.5c0.2-1.2,1.8-3.2,4.6-5.9l6.1-5.8l0-0.1l0.1-0.1l4.8-7.6c0.2-0.1,0.5-0.3,0.8-0.4c0,0,0.1-0.1,0.1-0.1c0.2-0.1,0.4-0.2,0.6-0.2c1-0.4,2.4-0.7,4-0.9l6.1-1.5l0.3-0.1c0.2-0.1,0.3-0.1,0.3-0.1c0.1,0,0.3,0.1,0.5,0.6l0.1,0.3l0.2,0.1c0.9,1.1,1.8,1.6,3.1,1.3l0.2,0.1l3.9-2l-0.8,2c-0.2,0.5-0.4,1-0.5,1.5c-0.1,0.3-0.1,0.5-0.2,0.8c0,0.2-0.1,0.4-0.1,0.5c-0.1,1,0,1.8,0.4,2.6c0.7,0.9,1,1.9,1.1,3c-0.1,0.6,0.1,1.1,0.5,1.5c0.3,0.3,0.8,0.5,1.3,0.5c1.2,0,2.9-0.7,8.1-4.4l8.5-7.8v-0.3c0.2-1.8,0.8-3.4,1.7-4.9c1.7-2.1,3.4-3.4,5.6-3.9c2-0.6,3.8-0.2,5.8,1.5c-0.1,0-0.2,0-0.3,0l-4.8,0.9c-1.4,0.4-1.8,1.8-3,5l-1.2,4.7c0,0.4-0.1,0.8-0.3,1.3c-0.1,0.1-0.1,0.1-0.1,0.2c-1.4,3.7-6.6,10-15.5,18.7c-10.4,9.9-18.2,16.2-23.8,19.1c-0.5,0.1-0.9,0.4-1.2,0.7c-0.3,0.2-0.5,0.4-0.6,0.7c-0.1,0.1-0.1,0.2-0.2,0.3c-0.4,0.7-0.7,1.6-0.9,2.5c0,0.1,0,0.3,0,0.4l-1.1,2.5c-0.5,0.4-0.9,0.9-1.3,1.4c-0.4,0.4-0.8,0.8-1.1,1.2c-0.4,0.5-0.7,1.1-1,1.7c-0.3,0.4-0.5,0.8-0.7,1.2c-0.3,0.6-0.5,1.3-0.6,2c-0.1,0.3-0.3,0.7-0.3,1c-0.2,1-0.3,2.1-0.2,3.1l0,5.2l-1.4,5.4c-1.1,2.2-0.7,6.8,1.4,15.5c1.8,7.4,3.3,12.3,4.7,15.3c0.5,1.8,1.7,2.8,3.6,3.1c0.2,0,0.4,0,0.6,0c1.5,0,2.9-0.8,4.1-1.7l3.2-3.2l1.4-4.1l0.1-0.3c0-2.7,1.5-5,5.1-7.3l3.1-2.8c1-1.5,0.9-3,0.6-4l-0.1-0.3c-1-1.4,0.2-2.8,1.1-3.6c1.2-1.5,2.6-2.2,4.2-2.2l3.4,0l3.4-0.6l0.3-0.1c2.2-1,2.3-2.5,2.1-3.3l-1.6-2.6l-0.3-0.3c-1.3-0.9-1.8-2.1-0.2-5l0.1-0.4c0-0.7,1.1-2.4,2.2-3.9c0.5-0.6,0.9-1.2,1.2-1.6c0,0.1,0,0.2,0,0.3v0.3c0,0.2,0,0.5-0.1,0.8c-0.3,0.7-0.2,1.5,0.3,2c0.3,0.4,0.8,0.6,1.5,0.6l2.4-0.3l0.3-0.2c1.7-1.5,2.2-3.8,1.3-6.8l-2.1-2.4l-1.6-2.4c0-0.6,0.4-1.2,1.5-2.3c0,0,0,0,0,0c0.1-0.1,0.1-0.1,0.2-0.2l2.3-3.1l-0.3-0.5c-0.8-1.5-2.9-1.9-4.9-2.1l-3.2-0.4c-0.3-0.8-0.3-1.5,0.2-2.4l3.9-5.9l2-2.9l1.6-5l0-0.2c-0.2-1.5,0-2.5,0.7-3.3c1-0.8,1.2-0.7,1.6-0.6l0.5,0.1l2.5-1.6l1.9,4.2l0.3-0.2l0.1,0.3l2.6-2.3l1.1-1.9l0-0.1l5-3c-0.1,0.2-0.1,0.4-0.2,0.5c-0.1,0.2-0.2,0.5-0.2,0.7c-0.1,0.2-0.1,0.4-0.2,0.6c0,0.2-0.1,0.3-0.1,0.4c-0.1,0.2-0.1,0.4-0.1,0.6c0,0.1-0.1,0.2-0.1,0.2c-0.1,0.2-0.1,0.4-0.1,0.6c0,0,0,0.1,0,0.1c0,0.2,0,0.3,0,0.5c0,0,0,0,0,0.1c0,0.2,0,0.3,0.1,0.4c0.1,0.3,0.2,0.5,0.3,0.6c0.1,0.1,0.2,0.2,0.3,0.3l0,0.1l0.1-0.1c0,0,0,0,0,0l0.1,0.4l0.5-0.3c0.1,0,0.1,0.1,0.3,0.1h0.3l6.8-3.9c3.1-2.4,6-3.9,8-4.3c0.5-0.1,0.9-0.1,1.4-0.1c1.4,0,3.5,0.4,5.2,3.9c0,0,0,0,0,0c0.4,1,1.1,1.6,2.1,1.9c0.2,0.1,0.4,0.1,0.5,0.1c0,0,0,0,0,0c0.2,0,0.3,0,0.5,0c1.1,0,2.3-0.5,3.5-1.6l5.2-5.5c1.5-1.9,3.6-3.6,6.2-5.2l6.7-5.7l9.3-4.2c5-1.8,8.6-3.8,10.3-5.7l2.6-2.7c0.3-0.2,0.5-0.2,0.8,0c0.1,0.1,0.3,0.2,0.4,0.4c0.1,0.1,0.3,0.4,0.5,0.7l0.2,0.2l0.1,0.1c0.8,0.8,2.1,1.5,3.9,1.9l0.5,0.3h4.5l0.4-0.1c3.4-1,5-2.7,5-5.4c-0.3-1.9-1.3-3.6-3.3-5.4l-3.4-2.8c-0.7-0.6-0.8-1.1-0.9-1.1l0.3-0.2l1.3-2.9l-0.6-2.8l-0.1-0.4c-1.6-2.2-2.3-2.7-3.1-2.7l-0.9,0l-0.1,0.4c-0.4,0.2-0.7,0.2-0.9,0l-0.3-0.2l1.8-1.4l-0.1,0.2l2.8-2.3c0.3,0,0.5,0,0.7-0.1l4.3-3.2l5.3-4.5l0.1-0.1l0,0l0.2-0.2c1.6-2.3,2.1-5.5,1.6-9.1c0-2.6,0.8-3.6,1.9-4.2l1.5-0.4c0.2,0.2,0.3,0.4,0.4,0.7l0.4,4.1l0.1,0.3c0.1,0.3,0.3,0.5,0.5,0.8c0.8,1,2,1.5,3.8,1.8c0,0,0,0,0,0h0l0.2,0l5.2-1.1l4.5,0.4l1.2,2.6l1.2,3.6c0.3,1.4,1.6,2.3,2.6,3l0.4,0.3l2.8-0.2l3.5,3.5l0.3,0.3l0.3,0.1c1.6,0.8,3.3,1.3,5.3,1.3c0.6,0,1.3-0.1,2.1-0.2l0.9,0.2l0.1-0.3l1-3.6c0.1-1.3,0.4-3.2,1-3.6c2.9-2,3.6-4.5,2-6.8l-1.8-2l-0.8-1.4c0.1,0,0.2,0.1,0.3,0.1l3.5,2.1l5,0.2c0.8-0.1,1.3-0.4,1.6-0.8l1,0.1l-0.7-0.6c0,0,0-0.1,0-0.1c0-0.2,0-0.4,0-0.5c1.7-0.2,2.9-1.1,3.6-2.8l1.2-1l1.3-0.6l1.8-1.5l0,0L988.9,378.9z"/><path d="M325.3,312.3L325.3,312.3c-0.4-1.3-0.8-2.1-1.3-2.7v-0.8l-0.7,0.3l0,0l-0.4-0.6l-0.3,0.4l0,0l0,0.2l0,0c-0.9,0.2-1.5,1.1-1.9,2c-0.2,0.6-0.5,1.3-0.7,2l0.5-4.6l2.1-5.4c1.9-2.5,2.4-3.9,2.4-4.7c0.4,2.1,0.6,4.4,0.6,6.9L325.3,312.3z"/><path d="M907.6,401l-0.7,1.5c-0.4,0.6-0.8,0.6-1,0.6c-0.3,0-0.7-0.1-1.1-0.3l0.7-2.1l-0.3-0.4c-0.3-0.4-0.5-0.7-0.7-1l2.2,0.9l0.3,0.2h0.2l0.2,0.1l0.2-0.1L907.6,401L907.6,401L907.6,401z"/><path d="M913.7,406.8c-0.8-0.4-1.5-0.9-1.9-2.1l-1.7-3.2h0l0-0.1c-0.3-0.5-0.6-0.7-0.9-0.8l-0.3-0.6c0.2-0.1,0.4-0.2,0.6-0.4l2,0.1c1.4,1.3,3.2,2.7,4.8,3.4L913.7,406.8z"/></g>
</svg>