<?xml version="1.0" encoding="utf-8"?>
<!-- Svg Vector Icons : http://www.onlinewebfonts.com/icon -->
<!DOCTYPE svg PUBLIC "-//W3C//DTD SVG 1.1//EN" "http://www.w3.org/Graphics/SVG/1.1/DTD/svg11.dtd">
<svg version="1.1" xmlns="http://www.w3.org/2000/svg" xmlns:xlink="http://www.w3.org/1999/xlink" x="0px" y="0px" viewBox="0 0 1000 1000" enable-background="new 0 0 1000 1000" xml:space="preserve">
<metadata> Svg Vector Icons : http://www.onlinewebfonts.com/icon </metadata>
<g><path d="M567.8,751.2l-5.6,3.7l-6.1,0.5c-2.6-0.8-4.7,0.1-7,1.3l-3.9,1.4l-12.4-5.3l-11.8-6.3l-1.6,1.3c-6.4,5.2-3.5,13.7,0.1,20.8l8.5,13.5h-3.7l3.2,10.1l3.1,5.3l7.9,7.5l8.4,5.2l10.3-0.8l3.9-9c0.5-1.6,1.1-2.6,3.4-3.5l7.9-3.5l5-12.1l3.3-13.6l-2.1-10.8C578,754.8,576.2,746.6,567.8,751.2z M988.9,760.1c-0.5-0.6-1.5-1.6-3.3-1.6c-1.2,0-2.5,0.5-3.8,1.3l-5.3,2.7h-1.7l-5.1-7.6c-2.5-3.5-5.4-5.8-7.5-6.1l-0.7-0.1l-0.7,0.3c-4.4,1.6-5.6,6.5-6.1,10.4l-0.6,1.9c-1.4,4-2.6,7.4-4.2,9l-7,10.1l-4.7,7.9l-16.1,15.8L901,818.9c-5,2.4-11.3,8.1-18.8,17.1l-9,11.9c-2.6,0.6-5.6,3.8-8,8.3c-2.1,3.2-2.7,5.7-1.8,7.7c0.7,1.7,2.4,2.9,5.1,3.6l0.6,0.2l8.6-1.3l0.7-1c0.7-1,1.2-1,2.1-0.8l16.4,5.4l14,3.6l0.5,0c10.7-0.8,18.9-8.4,24.6-23.2l1.8-9.7l2.1-4.4l0.9-0.1l0.9-1.2c1-1.4,1.8-3.5-1.3-13.1l3.5-0.4c0.7,0.2,1.4,0.2,1.8,0.2c2.4,0,5-1.3,8.1-4.2c1.4-1.4,3.2-2.3,4.9-2.4l10.9,2.9l-2.3-6.9c-1.4-3.7-0.4-6.6,4.1-10.2l14.7-16.3l3.8-18.9C990.2,762.9,989.8,761,988.9,760.1z M655.7,497.6l1.3-16.2c0-5.1-4.2-11.5-13.5-21l-18.3-16.2c-2.9-2.2-4.9-4.8-6-7.7l-5.3-13.2l-5.5-3.5l-5.1,0.7c-1.5,0-2.8-0.4-4.8-5.4l-8.9-19.8c-4.9-7.8-8.9-12.1-12.9-13.7c-12.2-4.2-21.8-9.6-26.1-14.9c-5-6.5-8.4-16.4-10.1-29.4l-8.7-15.9l-0.6-12.2c0-7.9-4.7-10.9-9.3-11.1c-1.6-0.5-3.4-1.4-3.9-1.9l-3.7-4.4l-7.5,2.1c0-0.2-0.1-0.5-0.1-0.9l-1.4-13.9c-1.7-7.4-3-12.5-6.3-13.7c-0.9-1.2-2.3-3.4-3.3-6.2l-5-11.9l-5.7-7.1h-1.5c-5.3,0-7.2,7.8-7.8,10.8l-3.2,6.2c-2.6,3-4,5.6-3.3,9.6l-3,45.2l-5.5,19.8l-7,11.6c-3.8,2.5-7.3,3.1-12.5,1.7L426.2,332l-1-0.1c-9.7-0.8-10.8-2.5-10.8-2.6l-11.6-8.2l-0.8-0.4c-7.4-2.4-8.8-3.8-9.1-4.2l-9.3-5.8l-7-6.1c-1-3,0.6-8,4.9-15.7l11.6-15.8l3.1-6.5l0.2-0.7c0.6-3.3,0.2-5.6-1.2-7.2c-0.9-1-2.2-1.5-3.5-1.5h-1.4c-4.2,0-5.9,3.9-7.1,6.6c-0.1,0.2-0.2,0.5-0.3,0.6c-0.1-0.1-0.2-0.1-0.4-0.2c-8.9-5.2-17.1-7.6-25.4-7.5L344,254l-11.5-6.3l-18.3-2.4l11.1,13.5c0.3,0.5,0.5,0.7,0.5,0.9c-0.3,0.2-1.3,0.5-3.3,0.7l-9.8,0.6h-8.2c-0.9-0.3-1.7-0.5-2.4-0.5c-4.6,0-5.3,4.4-5.4,6.9L279,286.1l-5.3,9.2l1,1.4c0.3,0.5,0.7,1,1.2,1.5c1.2,1.5,2.6,3.2,3.4,5.6v1.9l-1.1,0.5c-0.3-0.2-0.7-0.4-0.8-0.5l-5.4-4c-1.8-1.1-3.4-1.7-5.2-1.7c-4.9,0-8,4.5-9.1,6.3c-0.3,0.6-0.5,0.9-0.7,1.2c-0.4-0.4-1-1.1-1.9-2.5l-4.5-12.6c-1.6-3.7-4.6-5.7-8.5-5.7c-1.6,0-3.4,0.4-6,1.5c-2.2,1.4-4,2.4-5.2,3.1c-2.9-1.5-6.7-0.5-14.3,4.8l-12,9.4l-0.3,0.9c-0.2,0.8-1.5,4-7.7,8.6l-0.7,0.4l-2.8,6.4l2.9,3.2h-2.6c-7.3,0-11.7,1.5-13.2,4.4c-0.9,1.7-0.6,3.7,0.9,5.5l0.2,0.3c-1.1,0.4-2.1,1.3-3,2.6l-0.4,0.8l-2.4-4.9l-1.7-1.8h-0.4l-0.1-0.1l-0.2,0.1h-0.5c-1.1,0-4.5,0-17.2,18c-10,15-17.5,24.1-20.6,27.1c-2.3,1.7-6.6,4.1-14.6,6l-54.5,14.2l-18.2,12l-12.2,11.6l-4.1-1.7c-1.7-0.5-4.2-0.1-5.7,1.4c-1.5,1.7-3.2,5.1-1.8,17.5c0.1,0.8-0.5,3.4-4.1,10.8c-4.8,7.2-2.5,12.5-0.1,15.2l6.7,11.4l2.3,10.9l-0.3-0.2c-0.5-4.8-3.3-8.2-7.9-9.1l-2-0.4l-3.6,5.1l2.3,2.5l-6.7-2.3l17.3,36.2c10.6,23,12.9,32.3,12.9,36.1l13.2,34.3c0.5,6.3-0.2,11.6-2.3,16.6L45,617.7c-3.1,3.3-4.2,6.7-3.3,10c1.2,4.8,6.7,8.7,16.8,12c11.5,3.6,22.5,5.5,32.9,5.5c5.1,0,11.3-3.2,20-10.1c7.3-5.4,13.6-10,16.3-10l36.1,0c13.1-1.4,22.8-5.4,30.7-12.9c6.8-8,17.3-12.6,31.2-13.7l17.8-1.9c6.1-1.3,11.5-3.9,16.4-6.2l1-0.9c2.3-3,7.7-4.7,18.1-5.8l32.1,1.7c9.9,2.1,21.2,4.6,29,7.6c9.1,3.1,11.1,6,11.1,6.8c0,5.4,2.8,11,7.3,14.5c4.7,4,6.7,6.9,7.1,10.6c0.6,5.1,1.8,11.2,6.1,15.1c0.7,1.4,1.6,2.3,2.5,2.8v0.2l0.2-0.1c1,0.6,2.1,0.7,2.7,0.7c3.2,0,5.9-2.5,8-4.9l16.9-20.7c3.6-4.4,6.4-7.5,8.3-9.4l-0.3,2.7l-2.9,8.7c-3.1,2.7-3.5,6.9-3.5,9.9v5.8l-10.7,8.3v1.4c0,0.1,0.1,0.1,0.1,0.3l-3.8,3h5.1c0.8,0.8,1.8,1.2,3.2,1.2c1.3,0,2.8-0.5,5-1.5l6.4-3.3l0.4-0.7c2.4-4.2,4-6.6,5.2-8.1l0.6,19.4l11.9,0.8l5.4-1.3l6.8,17.6c-3.5,14.4,5.1,25.6,26.8,34.5l24.8,6l19.5-0.6c4.7-0.7,8.6-4.1,11.5-10.1l1.9-2.1c0.8,0.1,1.5,0.4,2.2,0.8l7.2,10.3c3.7,5,7.6,7.5,11.6,7.5c1.8,0,3.5-0.5,5.2-1.7l11.5-9.1c4.2-3.8,7.6-5.5,9.3-6.4l24.8-6.1c16.2-6.6,15-16.2,12.9-21.3c-3.9-9.5,15-49.2,21.2-62.3c1.6-3.5,6.4-11.2,20-23.4c3.3-3.1,5.2-13.7,5.8-31l5-22.6c1.4-8.5,0.1-16.9-3.3-23.4C655.3,507.1,654.7,502.5,655.7,497.6z M584.5,178.3l7.8,2.9l22.7,1.4l8.2-4.2l0.7-0.4c3-2.8,5.2-3.1,6.7-3.1c5.3,0.6,8-0.5,8.2-4l0-0.5l-1.2-3.8l0.5-0.2c4.3-2.1,6.3-5.1,6.4-9.7V156l-1.9-4.5h-8.7c-2,0-3.4,0.5-4.1,1.4c-1.4,1.5-0.9,3.4-0.7,4.1c0.3,1.1,0,2.2-0.5,2.7c-3.9,0.7-5.4,2.3-6.1,3.5c-4.4,4.8-8.3,6.6-10.5,6.6c-0.5,0-1.4-0.3-2.4-0.6l-6.1-2.6l-3.3,3.1l-3.6,1.9l-10.1-1.8l-3.3,0.7c-0.8,0-2.6,0.3-3.7,2.2l-2.7,1.4l2.9,2.6C580.6,177.3,581.7,177.9,584.5,178.3z M473.9,228.7c13,3.1,21.7,1.3,27.3-5l0.5-0.6l0.2-0.7c0.9-4.3-4.7-5.6-7.5-6.3c-4.8-1.3-5.5-2.3-5.7-2.7h13.9l2.3-6c0.5-1.9,0.8-2.8,1.3-3.3l9.9,1.6l13.5,1.7l1.5-0.1c0.6,0,2.8,0.2,6.4,3.1l6.8,7.5c4.7,6.2,10.9,11.2,17.7,14.6l5.9,7.9l16.4,1.3l15.4,6.2l18.2,1l-4.1-5.9l-7.7-5.7l-1.2-5.6l-5-2l-4-0.6l-1.4-5.3l-5.2-0.8l-6.1-1.6l-5.7-9.8l-0.7-0.8c-15-11.3-18.7-16.2-19.2-18.6l0.5-0.9c0.3-0.8,1.9-1.3,4.7-1.3l7.6-0.6l1.9-2.4l-0.3-1.3c-0.7-4.3-10.5-9.6-28.9-15.9c-3-1-3.8-1.6-3.9-2.2l0.1-0.4l-0.5-5.7l-0.2-0.8c-1.9-4.4-5.3-8.3-9.2-10.7c-3.4-2.6-7.9-4.3-14.2-5.1c-5.5,0-20.9-5.5-52.4-18.5v99.6L473.9,228.7z"/></g>
</svg>